<svg width="212" height="66" viewBox="0 0 212 66" fill="none" xmlns="http://www.w3.org/2000/svg">
<path d="M21.937 14.2184C19.2351 18.8983 21.6237 25.5525 23.1557 28.2946C27.273 23.6509 29.1884 22.5666 35.9523 22.5666C44.1943 22.5666 55.33 30.4274 55.33 30.4274C52.401 14.0855 39.2311 9.07346 32.8446 8.73415C30.3345 8.61228 24.6389 9.5385 21.937 14.2184Z" fill="#D12228" stroke="black" stroke-width="0.121872"/>
<path d="M55.5958 33.3779C52.8939 28.698 45.9369 27.4395 42.7961 27.3952C44.7591 33.2827 44.7403 35.4837 41.3584 41.3414C37.2374 48.4791 24.8619 54.1926 24.8619 54.1926C40.4789 59.8269 51.4044 50.9275 54.8916 45.5663C56.2521 43.4534 58.2978 38.0578 55.5958 33.3779Z" fill="#438BCF" stroke="black" stroke-width="0.121872"/>
<path d="M21.1911 53.3388C26.5947 53.393 31.217 48.0434 32.8527 45.3619C26.7853 44.0572 24.8999 42.9215 21.5769 37.0301C17.5278 29.8514 18.9037 16.2903 18.9037 16.2903C6.10885 26.87 8.21353 40.8033 11.0556 46.5326C12.1826 48.7788 15.7875 53.2846 21.1911 53.3388Z" fill="#F2CF13" stroke="black" stroke-width="0.121872"/>
<path d="M82.393 20.3561V33.3701H80.26V24.9641C80.26 24.6281 80.278 24.2651 80.314 23.8751L76.381 31.2641C76.195 31.6181 75.91 31.7951 75.526 31.7951H75.184C74.8 31.7951 74.515 31.6181 74.329 31.2641L70.351 23.8481C70.369 24.0461 70.384 24.2411 70.396 24.4331C70.408 24.6251 70.414 24.8021 70.414 24.9641V33.3701H68.281V20.3561H70.108C70.216 20.3561 70.309 20.3591 70.387 20.3651C70.465 20.3711 70.534 20.3861 70.594 20.4101C70.66 20.4341 70.717 20.4731 70.765 20.5271C70.819 20.5811 70.87 20.6531 70.918 20.7431L74.815 27.9701C74.917 28.1621 75.01 28.3601 75.094 28.5641C75.184 28.7681 75.271 28.9781 75.355 29.1941C75.439 28.9721 75.526 28.7591 75.616 28.5551C75.706 28.3451 75.802 28.1441 75.904 27.9521L79.747 20.7431C79.795 20.6531 79.846 20.5811 79.9 20.5271C79.954 20.4731 80.011 20.4341 80.071 20.4101C80.137 20.3861 80.209 20.3711 80.287 20.3651C80.365 20.3591 80.458 20.3561 80.566 20.3561H82.393ZM96.8527 26.8631C96.8527 27.8171 96.6937 28.6931 96.3757 29.4911C96.0577 30.2891 95.6107 30.9761 95.0347 31.5521C94.4587 32.1281 93.7657 32.5751 92.9557 32.8931C92.1457 33.2111 91.2457 33.3701 90.2557 33.3701H85.2967V20.3561H90.2557C91.2457 20.3561 92.1457 20.5181 92.9557 20.8421C93.7657 21.1601 94.4587 21.6071 95.0347 22.1831C95.6107 22.7531 96.0577 23.4371 96.3757 24.2351C96.6937 25.0331 96.8527 25.9091 96.8527 26.8631ZM94.3687 26.8631C94.3687 26.1491 94.2727 25.5101 94.0807 24.9461C93.8947 24.3761 93.6217 23.8961 93.2617 23.5061C92.9077 23.1101 92.4757 22.8071 91.9657 22.5971C91.4617 22.3871 90.8917 22.2821 90.2557 22.2821H87.7267V31.4441H90.2557C90.8917 31.4441 91.4617 31.3391 91.9657 31.1291C92.4757 30.9191 92.9077 30.6191 93.2617 30.2291C93.6217 29.8331 93.8947 29.3531 94.0807 28.7891C94.2727 28.2191 94.3687 27.5771 94.3687 26.8631ZM104.726 33.3701H103.799V20.6351H104.726V33.3701ZM108.766 25.9811C109.18 25.4651 109.657 25.0511 110.197 24.7391C110.743 24.4271 111.349 24.2711 112.015 24.2711C112.507 24.2711 112.939 24.3491 113.311 24.5051C113.689 24.6611 114.001 24.8861 114.247 25.1801C114.493 25.4741 114.679 25.8281 114.805 26.2421C114.931 26.6561 114.994 27.1241 114.994 27.6461V33.3701H114.13V27.6461C114.13 26.8061 113.938 26.1491 113.554 25.6751C113.17 25.1951 112.585 24.9551 111.799 24.9551C111.217 24.9551 110.671 25.1051 110.161 25.4051C109.657 25.6991 109.207 26.1101 108.811 26.6381V33.3701H107.947V24.4151H108.424C108.574 24.4151 108.661 24.4901 108.685 24.6401L108.766 25.9811ZM120.168 33.5141C119.562 33.5141 119.088 33.3461 118.746 33.0101C118.41 32.6741 118.242 32.1551 118.242 31.4531V25.3331H116.955C116.889 25.3331 116.835 25.3151 116.793 25.2791C116.751 25.2431 116.73 25.1921 116.73 25.1261V24.7931L118.26 24.6851L118.476 21.4811C118.488 21.4271 118.512 21.3791 118.548 21.3371C118.584 21.2951 118.635 21.2741 118.701 21.2741H119.106V24.6941H121.932V25.3331H119.106V31.4081C119.106 31.6541 119.136 31.8671 119.196 32.0471C119.262 32.2211 119.349 32.3651 119.457 32.4791C119.571 32.5931 119.703 32.6771 119.853 32.7311C120.003 32.7851 120.165 32.8121 120.339 32.8121C120.555 32.8121 120.741 32.7821 120.897 32.7221C121.053 32.6561 121.188 32.5871 121.302 32.5151C121.416 32.4371 121.509 32.3681 121.581 32.3081C121.653 32.2421 121.71 32.2091 121.752 32.2091C121.8 32.2091 121.848 32.2391 121.896 32.2991L122.13 32.6771C121.902 32.9291 121.611 33.1331 121.257 33.2891C120.909 33.4391 120.546 33.5141 120.168 33.5141ZM130.137 27.9881C130.137 27.5081 130.068 27.0791 129.93 26.7011C129.798 26.3171 129.609 25.9931 129.363 25.7291C129.117 25.4651 128.823 25.2641 128.481 25.1261C128.145 24.9821 127.773 24.9101 127.365 24.9101C126.903 24.9101 126.489 24.9821 126.123 25.1261C125.757 25.2701 125.439 25.4771 125.169 25.7471C124.905 26.0171 124.692 26.3411 124.53 26.7191C124.368 27.0971 124.26 27.5201 124.206 27.9881H130.137ZM124.161 28.5371V28.7081C124.161 29.3801 124.239 29.9711 124.395 30.4811C124.551 30.9911 124.773 31.4201 125.061 31.7681C125.349 32.1101 125.697 32.3681 126.105 32.5421C126.513 32.7161 126.969 32.8031 127.473 32.8031C127.923 32.8031 128.313 32.7551 128.643 32.6591C128.973 32.5571 129.249 32.4461 129.471 32.3261C129.699 32.2001 129.879 32.0891 130.011 31.9931C130.143 31.8911 130.239 31.8401 130.299 31.8401C130.377 31.8401 130.437 31.8701 130.479 31.9301L130.713 32.2181C130.569 32.3981 130.377 32.5661 130.137 32.7221C129.903 32.8781 129.639 33.0131 129.345 33.1271C129.057 33.2351 128.745 33.3221 128.409 33.3881C128.079 33.4541 127.746 33.4871 127.41 33.4871C126.798 33.4871 126.24 33.3821 125.736 33.1721C125.232 32.9561 124.8 32.6441 124.44 32.2361C124.08 31.8281 123.801 31.3301 123.603 30.7421C123.411 30.1481 123.315 29.4701 123.315 28.7081C123.315 28.0661 123.405 27.4751 123.585 26.9351C123.771 26.3891 124.035 25.9211 124.377 25.5311C124.725 25.1351 125.148 24.8261 125.646 24.6041C126.15 24.3821 126.72 24.2711 127.356 24.2711C127.86 24.2711 128.328 24.3581 128.76 24.5321C129.192 24.7061 129.567 24.9611 129.885 25.2971C130.203 25.6271 130.452 26.0351 130.632 26.5211C130.818 27.0071 130.911 27.5651 130.911 28.1951C130.911 28.3271 130.893 28.4171 130.857 28.4651C130.821 28.5131 130.761 28.5371 130.677 28.5371H124.161ZM134.061 26.5751C134.199 26.2091 134.355 25.8851 134.529 25.6031C134.709 25.3151 134.913 25.0721 135.141 24.8741C135.375 24.6761 135.633 24.5261 135.915 24.4241C136.203 24.3161 136.521 24.2621 136.869 24.2621C137.055 24.2621 137.238 24.2801 137.418 24.3161C137.598 24.3461 137.757 24.4031 137.895 24.4871L137.823 25.0811C137.793 25.1771 137.736 25.2251 137.652 25.2251C137.58 25.2251 137.469 25.2041 137.319 25.1621C137.175 25.1201 136.983 25.0991 136.743 25.0991C136.395 25.0991 136.086 25.1531 135.816 25.2611C135.552 25.3631 135.312 25.5191 135.096 25.7291C134.886 25.9391 134.7 26.2001 134.538 26.5121C134.382 26.8181 134.238 27.1721 134.106 27.5741V33.3701H133.242V24.4151H133.701C133.803 24.4151 133.875 24.4361 133.917 24.4781C133.959 24.5201 133.986 24.5921 133.998 24.6941L134.061 26.5751ZM140.424 25.9811C140.838 25.4651 141.315 25.0511 141.855 24.7391C142.401 24.4271 143.007 24.2711 143.673 24.2711C144.165 24.2711 144.597 24.3491 144.969 24.5051C145.347 24.6611 145.659 24.8861 145.905 25.1801C146.151 25.4741 146.337 25.8281 146.463 26.2421C146.589 26.6561 146.652 27.1241 146.652 27.6461V33.3701H145.788V27.6461C145.788 26.8061 145.596 26.1491 145.212 25.6751C144.828 25.1951 144.243 24.9551 143.457 24.9551C142.875 24.9551 142.329 25.1051 141.819 25.4051C141.315 25.6991 140.865 26.1101 140.469 26.6381V33.3701H139.605V24.4151H140.082C140.232 24.4151 140.319 24.4901 140.343 24.6401L140.424 25.9811ZM154.514 29.0411C153.662 29.0711 152.927 29.1401 152.309 29.2481C151.697 29.3501 151.19 29.4911 150.788 29.6711C150.392 29.8511 150.098 30.0671 149.906 30.3191C149.714 30.5651 149.618 30.8471 149.618 31.1651C149.618 31.4651 149.666 31.7261 149.762 31.9481C149.864 32.1641 149.996 32.3441 150.158 32.4881C150.326 32.6261 150.518 32.7281 150.734 32.7941C150.95 32.8601 151.175 32.8931 151.409 32.8931C151.757 32.8931 152.075 32.8571 152.363 32.7851C152.657 32.7071 152.927 32.6021 153.173 32.4701C153.425 32.3321 153.659 32.1701 153.875 31.9841C154.091 31.7981 154.304 31.5971 154.514 31.3811V29.0411ZM149.249 25.6841C149.717 25.2161 150.209 24.8621 150.725 24.6221C151.241 24.3821 151.826 24.2621 152.48 24.2621C152.96 24.2621 153.38 24.3401 153.74 24.4961C154.1 24.6461 154.397 24.8651 154.631 25.1531C154.871 25.4351 155.051 25.7801 155.171 26.1881C155.291 26.5901 155.351 27.0401 155.351 27.5381V33.3701H155.009C154.829 33.3701 154.718 33.2861 154.676 33.1181L154.55 31.9661C154.304 32.2061 154.058 32.4221 153.812 32.6141C153.572 32.8061 153.32 32.9681 153.056 33.1001C152.792 33.2321 152.507 33.3341 152.201 33.4061C151.895 33.4781 151.559 33.5141 151.193 33.5141C150.887 33.5141 150.59 33.4691 150.302 33.3791C150.014 33.2891 149.756 33.1511 149.528 32.9651C149.306 32.7791 149.126 32.5421 148.988 32.2541C148.856 31.9601 148.79 31.6091 148.79 31.2011C148.79 30.8231 148.898 30.4721 149.114 30.1481C149.33 29.8241 149.669 29.5421 150.131 29.3021C150.593 29.0621 151.184 28.8701 151.904 28.7261C152.63 28.5821 153.5 28.4981 154.514 28.4741V27.5381C154.514 26.7101 154.334 26.0741 153.974 25.6301C153.62 25.1801 153.092 24.9551 152.39 24.9551C151.958 24.9551 151.589 25.0151 151.283 25.1351C150.983 25.2551 150.728 25.3871 150.518 25.5311C150.308 25.6751 150.137 25.8071 150.005 25.9271C149.873 26.0471 149.762 26.1071 149.672 26.1071C149.606 26.1071 149.552 26.0921 149.51 26.0621C149.468 26.0321 149.432 25.9931 149.402 25.9451L149.249 25.6841ZM165.549 33.3701H164.685V25.3331H159.501V31.4081C159.501 31.6541 159.531 31.8671 159.591 32.0471C159.657 32.2211 159.744 32.3651 159.852 32.4791C159.966 32.5931 160.098 32.6771 160.248 32.7311C160.398 32.7851 160.56 32.8121 160.734 32.8121C160.95 32.8121 161.136 32.7821 161.292 32.7221C161.448 32.6561 161.583 32.5871 161.697 32.5151C161.811 32.4371 161.904 32.3681 161.976 32.3081C162.048 32.2421 162.105 32.2091 162.147 32.2091C162.195 32.2091 162.243 32.2391 162.291 32.2991L162.525 32.6771C162.297 32.9291 162.006 33.1331 161.652 33.2891C161.304 33.4391 160.941 33.5141 160.563 33.5141C159.957 33.5141 159.483 33.3461 159.141 33.0101C158.805 32.6741 158.637 32.1551 158.637 31.4531V25.3331H157.35C157.284 25.3331 157.23 25.3151 157.188 25.2791C157.146 25.2431 157.125 25.1921 157.125 25.1261V24.7931L158.655 24.6851L158.871 21.4811C158.883 21.4271 158.907 21.3791 158.943 21.3371C158.979 21.2951 159.03 21.2741 159.096 21.2741H159.501V24.6941H165.549V33.3701ZM165.945 21.2201C165.945 21.3281 165.921 21.4301 165.873 21.5261C165.831 21.6161 165.771 21.6971 165.693 21.7691C165.621 21.8411 165.537 21.8981 165.441 21.9401C165.345 21.9821 165.243 22.0031 165.135 22.0031C165.027 22.0031 164.925 21.9821 164.829 21.9401C164.733 21.8981 164.649 21.8411 164.577 21.7691C164.505 21.6971 164.448 21.6161 164.406 21.5261C164.364 21.4301 164.343 21.3281 164.343 21.2201C164.343 21.1121 164.364 21.0101 164.406 20.9141C164.448 20.8121 164.505 20.7251 164.577 20.6531C164.649 20.5811 164.733 20.5241 164.829 20.4821C164.925 20.4401 165.027 20.4191 165.135 20.4191C165.243 20.4191 165.345 20.4401 165.441 20.4821C165.537 20.5241 165.621 20.5811 165.693 20.6531C165.771 20.7251 165.831 20.8121 165.873 20.9141C165.921 21.0101 165.945 21.1121 165.945 21.2201ZM172.137 24.2711C172.779 24.2711 173.352 24.3821 173.856 24.6041C174.366 24.8201 174.795 25.1291 175.143 25.5311C175.491 25.9331 175.755 26.4191 175.935 26.9891C176.121 27.5531 176.214 28.1861 176.214 28.8881C176.214 29.5901 176.121 30.2231 175.935 30.7871C175.755 31.3511 175.491 31.8341 175.143 32.2361C174.795 32.6381 174.366 32.9471 173.856 33.1631C173.352 33.3791 172.779 33.4871 172.137 33.4871C171.495 33.4871 170.919 33.3791 170.409 33.1631C169.905 32.9471 169.476 32.6381 169.122 32.2361C168.774 31.8341 168.507 31.3511 168.321 30.7871C168.141 30.2231 168.051 29.5901 168.051 28.8881C168.051 28.1861 168.141 27.5531 168.321 26.9891C168.507 26.4191 168.774 25.9331 169.122 25.5311C169.476 25.1291 169.905 24.8201 170.409 24.6041C170.919 24.3821 171.495 24.2711 172.137 24.2711ZM172.137 32.8121C172.671 32.8121 173.136 32.7221 173.532 32.5421C173.934 32.3561 174.267 32.0921 174.531 31.7501C174.801 31.4081 175.002 30.9971 175.134 30.5171C175.266 30.0311 175.332 29.4881 175.332 28.8881C175.332 28.2941 175.266 27.7541 175.134 27.2681C175.002 26.7821 174.801 26.3681 174.531 26.0261C174.267 25.6781 173.934 25.4111 173.532 25.2251C173.136 25.0391 172.671 24.9461 172.137 24.9461C171.603 24.9461 171.135 25.0391 170.733 25.2251C170.337 25.4111 170.004 25.6781 169.734 26.0261C169.47 26.3681 169.269 26.7821 169.131 27.2681C168.999 27.7541 168.933 28.2941 168.933 28.8881C168.933 29.4881 168.999 30.0311 169.131 30.5171C169.269 30.9971 169.47 31.4081 169.734 31.7501C170.004 32.0921 170.337 32.3561 170.733 32.5421C171.135 32.7221 171.603 32.8121 172.137 32.8121ZM179.447 25.9811C179.861 25.4651 180.338 25.0511 180.878 24.7391C181.424 24.4271 182.03 24.2711 182.696 24.2711C183.188 24.2711 183.62 24.3491 183.992 24.5051C184.37 24.6611 184.682 24.8861 184.928 25.1801C185.174 25.4741 185.36 25.8281 185.486 26.2421C185.612 26.6561 185.675 27.1241 185.675 27.6461V33.3701H184.811V27.6461C184.811 26.8061 184.619 26.1491 184.235 25.6751C183.851 25.1951 183.266 24.9551 182.48 24.9551C181.898 24.9551 181.352 25.1051 180.842 25.4051C180.338 25.6991 179.888 26.1101 179.492 26.6381V33.3701H178.628V24.4151H179.105C179.255 24.4151 179.342 24.4901 179.366 24.6401L179.447 25.9811ZM193.538 29.0411C192.686 29.0711 191.951 29.1401 191.333 29.2481C190.721 29.3501 190.214 29.4911 189.812 29.6711C189.416 29.8511 189.122 30.0671 188.93 30.3191C188.738 30.5651 188.642 30.8471 188.642 31.1651C188.642 31.4651 188.69 31.7261 188.786 31.9481C188.888 32.1641 189.02 32.3441 189.182 32.4881C189.35 32.6261 189.542 32.7281 189.758 32.7941C189.974 32.8601 190.199 32.8931 190.433 32.8931C190.781 32.8931 191.099 32.8571 191.387 32.7851C191.681 32.7071 191.951 32.6021 192.197 32.4701C192.449 32.3321 192.683 32.1701 192.899 31.9841C193.115 31.7981 193.328 31.5971 193.538 31.3811V29.0411ZM188.273 25.6841C188.741 25.2161 189.233 24.8621 189.749 24.6221C190.265 24.3821 190.85 24.2621 191.504 24.2621C191.984 24.2621 192.404 24.3401 192.764 24.4961C193.124 24.6461 193.421 24.8651 193.655 25.1531C193.895 25.4351 194.075 25.7801 194.195 26.1881C194.315 26.5901 194.375 27.0401 194.375 27.5381V33.3701H194.033C193.853 33.3701 193.742 33.2861 193.7 33.1181L193.574 31.9661C193.328 32.2061 193.082 32.4221 192.836 32.6141C192.596 32.8061 192.344 32.9681 192.08 33.1001C191.816 33.2321 191.531 33.3341 191.225 33.4061C190.919 33.4781 190.583 33.5141 190.217 33.5141C189.911 33.5141 189.614 33.4691 189.326 33.3791C189.038 33.2891 188.78 33.1511 188.552 32.9651C188.33 32.7791 188.15 32.5421 188.012 32.2541C187.88 31.9601 187.814 31.6091 187.814 31.2011C187.814 30.8231 187.922 30.4721 188.138 30.1481C188.354 29.8241 188.693 29.5421 189.155 29.3021C189.617 29.0621 190.208 28.8701 190.928 28.7261C191.654 28.5821 192.524 28.4981 193.538 28.4741V27.5381C193.538 26.7101 193.358 26.0741 192.998 25.6301C192.644 25.1801 192.116 24.9551 191.414 24.9551C190.982 24.9551 190.613 25.0151 190.307 25.1351C190.007 25.2551 189.752 25.3871 189.542 25.5311C189.332 25.6751 189.161 25.8071 189.029 25.9271C188.897 26.0471 188.786 26.1071 188.696 26.1071C188.63 26.1071 188.576 26.0921 188.534 26.0621C188.492 26.0321 188.456 25.9931 188.426 25.9451L188.273 25.6841ZM198.189 20.2751V33.3701H197.325V20.2751H198.189Z" fill="white"/>
<path d="M76.5426 40.249V48.3701H75.2115V43.1245C75.2115 42.9148 75.2228 42.6883 75.2452 42.4449L72.7909 47.0559C72.6748 47.2768 72.497 47.3873 72.2574 47.3873H72.0439C71.8043 47.3873 71.6265 47.2768 71.5104 47.0559L69.028 42.4281C69.0392 42.5516 69.0486 42.6733 69.0561 42.7931C69.0636 42.913 69.0673 43.0234 69.0673 43.1245V48.3701H67.7363V40.249H68.8764C68.9438 40.249 69.0018 40.2508 69.0505 40.2546C69.0991 40.2583 69.1422 40.2677 69.1796 40.2827C69.2208 40.2976 69.2564 40.322 69.2863 40.3557C69.32 40.3894 69.3519 40.4343 69.3818 40.4905L71.8137 45.0003C71.8773 45.1202 71.9354 45.2437 71.9878 45.371C72.0439 45.4983 72.0982 45.6294 72.1507 45.7642C72.2031 45.6256 72.2574 45.4927 72.3135 45.3654C72.3697 45.2344 72.4296 45.1089 72.4933 44.9891L74.8914 40.4905C74.9214 40.4343 74.9532 40.3894 74.9869 40.3557C75.0206 40.322 75.0562 40.2976 75.0936 40.2827C75.1348 40.2677 75.1797 40.2583 75.2284 40.2546C75.2771 40.2508 75.3351 40.249 75.4025 40.249H76.5426ZM81.0369 45.9102C80.6363 45.9289 80.2993 45.9645 80.026 46.0169C79.7527 46.0656 79.5337 46.1292 79.3689 46.2078C79.2042 46.2865 79.0862 46.3782 79.0151 46.483C78.9439 46.5879 78.9084 46.7021 78.9084 46.8256C78.9084 47.069 78.9795 47.2431 79.1218 47.348C79.2678 47.4528 79.4569 47.5052 79.689 47.5052C79.9736 47.5052 80.2188 47.4547 80.4248 47.3536C80.6344 47.2487 80.8385 47.0915 81.0369 46.8818V45.9102ZM77.8581 43.4109C78.5208 42.8044 79.3184 42.5011 80.2507 42.5011C80.5876 42.5011 80.889 42.5573 81.1549 42.6696C81.4207 42.7782 81.6454 42.9317 81.8288 43.1301C82.0123 43.3248 82.1508 43.5588 82.2444 43.8322C82.3418 44.1055 82.3905 44.405 82.3905 44.7308V48.3701H81.7614C81.6304 48.3701 81.5293 48.3514 81.4582 48.314C81.387 48.2728 81.3309 48.1923 81.2897 48.0725L81.1661 47.6568C81.0201 47.7879 80.8778 47.904 80.7393 48.0051C80.6007 48.1024 80.4566 48.1848 80.3068 48.2522C80.1571 48.3196 79.9961 48.3701 79.8238 48.4038C79.6553 48.4413 79.4681 48.46 79.2622 48.46C79.0188 48.46 78.7942 48.4282 78.5882 48.3645C78.3823 48.2971 78.2045 48.1979 78.0547 48.0668C77.9049 47.9358 77.7889 47.7729 77.7065 47.5782C77.6241 47.3835 77.5829 47.157 77.5829 46.8986C77.5829 46.7526 77.6073 46.6085 77.6559 46.4662C77.7046 46.3202 77.7832 46.1816 77.8918 46.0506C78.0041 45.9195 78.1483 45.796 78.3243 45.6799C78.5003 45.5638 78.7155 45.4628 78.9701 45.3766C79.2285 45.2905 79.528 45.2213 79.8688 45.1688C80.2095 45.1127 80.5989 45.079 81.0369 45.0677V44.7308C81.0369 44.3451 80.9546 44.0606 80.7898 43.8771C80.6251 43.6899 80.3873 43.5963 80.0766 43.5963C79.8519 43.5963 79.6647 43.6225 79.5149 43.6749C79.3689 43.7273 79.2397 43.7872 79.1274 43.8546C79.0151 43.9183 78.9121 43.9763 78.8185 44.0287C78.7286 44.0811 78.6276 44.1074 78.5152 44.1074C78.4179 44.1074 78.3355 44.083 78.2681 44.0343C78.2007 43.9819 78.1464 43.922 78.1052 43.8546L77.8581 43.4109ZM87.2128 43.7311C87.1753 43.791 87.136 43.834 87.0948 43.8602C87.0536 43.8827 87.0012 43.8939 86.9376 43.8939C86.8702 43.8939 86.7972 43.8752 86.7185 43.8378C86.6436 43.8003 86.5557 43.7591 86.4546 43.7142C86.3535 43.6655 86.2374 43.6225 86.1063 43.585C85.979 43.5476 85.8274 43.5289 85.6514 43.5289C85.3781 43.5289 85.1628 43.5869 85.0056 43.703C84.852 43.8191 84.7753 43.9707 84.7753 44.1579C84.7753 44.2815 84.8146 44.3863 84.8932 44.4724C84.9756 44.5548 85.0823 44.6278 85.2134 44.6914C85.3481 44.7551 85.4998 44.8131 85.6683 44.8656C85.8368 44.9142 86.0071 44.9685 86.1794 45.0284C86.3553 45.0883 86.5276 45.1576 86.6961 45.2362C86.8645 45.3111 87.0143 45.4085 87.1454 45.5283C87.2802 45.6443 87.3869 45.7848 87.4655 45.9495C87.5479 46.1142 87.589 46.3127 87.589 46.5448C87.589 46.8219 87.5385 47.0784 87.4374 47.3143C87.3401 47.5464 87.194 47.7486 86.9993 47.9208C86.8046 48.0893 86.5631 48.2222 86.2748 48.3196C85.9903 48.4132 85.6608 48.46 85.2864 48.46C85.0879 48.46 84.8932 48.4413 84.7023 48.4038C84.5151 48.3701 84.3335 48.3214 84.1575 48.2578C83.9853 48.1941 83.8243 48.1193 83.6745 48.0331C83.5285 47.947 83.3993 47.8534 83.287 47.7523L83.6071 47.2244C83.6483 47.1607 83.697 47.1121 83.7531 47.0784C83.8093 47.0447 83.8804 47.0278 83.9665 47.0278C84.0527 47.0278 84.1332 47.0522 84.208 47.1008C84.2867 47.1495 84.3765 47.2019 84.4776 47.2581C84.5787 47.3143 84.6967 47.3667 84.8314 47.4153C84.97 47.464 85.1441 47.4884 85.3538 47.4884C85.5185 47.4884 85.6589 47.4696 85.775 47.4322C85.8948 47.391 85.9922 47.3386 86.067 47.2749C86.1457 47.2113 86.2018 47.1383 86.2355 47.0559C86.273 46.9698 86.2917 46.8818 86.2917 46.7919C86.2917 46.6571 86.2505 46.5467 86.1681 46.4606C86.0895 46.3745 85.9828 46.2996 85.848 46.2359C85.717 46.1723 85.5653 46.1161 85.3931 46.0674C85.2246 46.015 85.0505 45.9589 84.8708 45.8989C84.6948 45.839 84.5207 45.7698 84.3484 45.6911C84.18 45.6088 84.0283 45.5058 83.8935 45.3823C83.7625 45.2587 83.6558 45.1071 83.5734 44.9273C83.4948 44.7476 83.4555 44.5304 83.4555 44.2758C83.4555 44.04 83.5023 43.8153 83.5959 43.6019C83.6895 43.3885 83.8261 43.2031 84.0059 43.0459C84.1893 42.8849 84.4158 42.7576 84.6854 42.664C84.9588 42.5666 85.2733 42.5179 85.629 42.5179C86.0258 42.5179 86.3872 42.5835 86.7129 42.7145C87.0387 42.8456 87.3101 43.0178 87.5273 43.2312L87.2128 43.7311ZM90.5539 48.46C90.0522 48.46 89.6665 48.3196 89.397 48.0388C89.1311 47.7542 88.9982 47.3629 88.9982 46.865V43.6468H88.4085C88.3336 43.6468 88.27 43.6225 88.2175 43.5738C88.1651 43.5251 88.1389 43.4521 88.1389 43.3548V42.8044L89.0656 42.6527L89.3577 41.0802C89.3764 41.0053 89.4119 40.9473 89.4644 40.9061C89.5168 40.8649 89.5842 40.8443 89.6665 40.8443H90.3854V42.6584H91.9243V43.6468H90.3854V46.7695C90.3854 46.9492 90.4285 47.0896 90.5146 47.1907C90.6045 47.2918 90.7262 47.3423 90.8797 47.3423C90.9658 47.3423 91.0369 47.333 91.0931 47.3143C91.153 47.2918 91.2035 47.2693 91.2447 47.2469C91.2897 47.2244 91.329 47.2038 91.3627 47.1851C91.3964 47.1626 91.4301 47.1514 91.4638 47.1514C91.5049 47.1514 91.5386 47.1626 91.5649 47.1851C91.5911 47.2038 91.6191 47.2338 91.6491 47.2749L92.0647 47.9489C91.8625 48.1174 91.6304 48.2447 91.3683 48.3308C91.1062 48.4169 90.8347 48.46 90.5539 48.46ZM96.481 44.8262C96.481 44.6465 96.4547 44.478 96.4023 44.3208C96.3536 44.1598 96.2788 44.0194 96.1777 43.8996C96.0766 43.7797 95.9474 43.6861 95.7901 43.6187C95.6366 43.5476 95.4569 43.512 95.251 43.512C94.8504 43.512 94.534 43.6262 94.3018 43.8546C94.0734 44.083 93.9274 44.4069 93.8638 44.8262H96.481ZM93.8357 45.6631C93.8581 45.9589 93.9106 46.2153 93.9929 46.4325C94.0753 46.6459 94.1839 46.8238 94.3187 46.966C94.4535 47.1046 94.6126 47.2094 94.7961 47.2806C94.9833 47.348 95.1892 47.3817 95.4139 47.3817C95.6385 47.3817 95.8313 47.3554 95.9923 47.303C96.1571 47.2506 96.2994 47.1926 96.4192 47.1289C96.5427 47.0653 96.6494 47.0072 96.7393 46.9548C96.8329 46.9024 96.9228 46.8762 97.0089 46.8762C97.125 46.8762 97.2111 46.9192 97.2672 47.0054L97.666 47.5108C97.5125 47.6905 97.3402 47.8422 97.1493 47.9657C96.9583 48.0856 96.758 48.1829 96.5483 48.2578C96.3424 48.3289 96.1309 48.3795 95.9137 48.4094C95.7003 48.4394 95.4925 48.4544 95.2903 48.4544C94.8897 48.4544 94.5171 48.3888 94.1727 48.2578C93.8282 48.123 93.5287 47.9264 93.2741 47.6681C93.0194 47.406 92.8191 47.084 92.6731 46.7021C92.5271 46.3164 92.4541 45.8709 92.4541 45.3654C92.4541 44.9723 92.5177 44.6035 92.645 44.259C92.7723 43.9108 92.9539 43.6094 93.1898 43.3548C93.4294 43.0964 93.7196 42.8924 94.0603 42.7426C94.4048 42.5928 94.7923 42.5179 95.2229 42.5179C95.5861 42.5179 95.9212 42.576 96.2282 42.692C96.5352 42.8081 96.7992 42.9785 97.0201 43.2031C97.241 43.424 97.4133 43.6974 97.5368 44.0231C97.6641 44.3451 97.7278 44.7139 97.7278 45.1295C97.7278 45.3392 97.7053 45.4815 97.6604 45.5564C97.6154 45.6275 97.5293 45.6631 97.402 45.6631H93.8357ZM100.077 43.6075C100.257 43.263 100.471 42.9935 100.718 42.7988C100.965 42.6003 101.257 42.5011 101.594 42.5011C101.86 42.5011 102.073 42.5591 102.234 42.6752L102.144 43.7142C102.125 43.7816 102.097 43.8303 102.06 43.8602C102.026 43.8864 101.979 43.8996 101.92 43.8996C101.863 43.8996 101.779 43.8902 101.667 43.8715C101.558 43.8527 101.452 43.8434 101.347 43.8434C101.193 43.8434 101.056 43.8659 100.937 43.9108C100.817 43.9557 100.708 44.0212 100.611 44.1074C100.517 44.1897 100.433 44.2908 100.358 44.4106C100.287 44.5304 100.22 44.6671 100.156 44.8206V48.3701H98.7688V42.6078H99.5832C99.7254 42.6078 99.8247 42.634 99.8808 42.6864C99.937 42.7351 99.9744 42.825 99.9931 42.956L100.077 43.6075ZM106.118 47.1907C106.399 47.1907 106.635 47.157 106.825 47.0896C107.016 47.0222 107.168 46.9323 107.28 46.82C107.396 46.7077 107.479 46.5766 107.527 46.4269C107.58 46.2771 107.606 46.118 107.606 45.9495C107.606 45.7735 107.578 45.6163 107.522 45.4777C107.466 45.3354 107.378 45.2156 107.258 45.1183C107.138 45.0172 106.983 44.9404 106.792 44.888C106.605 44.8356 106.378 44.8094 106.112 44.8094H104.59V47.1907H106.118ZM104.59 41.4172V43.7648H105.792C106.309 43.7648 106.698 43.6712 106.96 43.4839C107.226 43.2967 107.359 42.9991 107.359 42.591C107.359 42.1679 107.239 41.8665 107 41.6867C106.76 41.507 106.386 41.4172 105.876 41.4172H104.59ZM105.876 40.249C106.408 40.249 106.863 40.2995 107.241 40.4006C107.619 40.5017 107.928 40.6458 108.168 40.8331C108.411 41.0203 108.589 41.2468 108.701 41.5126C108.814 41.7785 108.87 42.078 108.87 42.4112C108.87 42.6022 108.842 42.7857 108.786 42.9616C108.729 43.1339 108.641 43.2967 108.522 43.4502C108.406 43.6 108.256 43.7367 108.072 43.8602C107.893 43.9838 107.677 44.0886 107.426 44.1747C108.542 44.4256 109.1 45.0284 109.1 45.9832C109.1 46.3277 109.035 46.6459 108.903 46.938C108.772 47.23 108.581 47.4827 108.331 47.6962C108.08 47.9058 107.771 48.0706 107.404 48.1904C107.037 48.3102 106.618 48.3701 106.146 48.3701H103.079V40.249H105.876ZM113.21 45.9102C112.809 45.9289 112.472 45.9645 112.199 46.0169C111.926 46.0656 111.707 46.1292 111.542 46.2078C111.377 46.2865 111.259 46.3782 111.188 46.483C111.117 46.5879 111.081 46.7021 111.081 46.8256C111.081 47.069 111.153 47.2431 111.295 47.348C111.441 47.4528 111.63 47.5052 111.862 47.5052C112.147 47.5052 112.392 47.4547 112.598 47.3536C112.807 47.2487 113.012 47.0915 113.21 46.8818V45.9102ZM110.031 43.4109C110.694 42.8044 111.491 42.5011 112.424 42.5011C112.761 42.5011 113.062 42.5573 113.328 42.6696C113.594 42.7782 113.818 42.9317 114.002 43.1301C114.185 43.3248 114.324 43.5588 114.417 43.8322C114.515 44.1055 114.563 44.405 114.563 44.7308V48.3701H113.934C113.803 48.3701 113.702 48.3514 113.631 48.314C113.56 48.2728 113.504 48.1923 113.463 48.0725L113.339 47.6568C113.193 47.7879 113.051 47.904 112.912 48.0051C112.774 48.1024 112.63 48.1848 112.48 48.2522C112.33 48.3196 112.169 48.3701 111.997 48.4038C111.828 48.4413 111.641 48.46 111.435 48.46C111.192 48.46 110.967 48.4282 110.761 48.3645C110.555 48.2971 110.377 48.1979 110.228 48.0668C110.078 47.9358 109.962 47.7729 109.879 47.5782C109.797 47.3835 109.756 47.157 109.756 46.8986C109.756 46.7526 109.78 46.6085 109.829 46.4662C109.878 46.3202 109.956 46.1816 110.065 46.0506C110.177 45.9195 110.321 45.796 110.497 45.6799C110.673 45.5638 110.889 45.4628 111.143 45.3766C111.402 45.2905 111.701 45.2213 112.042 45.1688C112.382 45.1127 112.772 45.079 113.21 45.0677V44.7308C113.21 44.3451 113.128 44.0606 112.963 43.8771C112.798 43.6899 112.56 43.5963 112.25 43.5963C112.025 43.5963 111.838 43.6225 111.688 43.6749C111.542 43.7273 111.413 43.7872 111.3 43.8546C111.188 43.9183 111.085 43.9763 110.992 44.0287C110.902 44.0811 110.801 44.1074 110.688 44.1074C110.591 44.1074 110.509 44.083 110.441 44.0343C110.374 43.9819 110.319 43.922 110.278 43.8546L110.031 43.4109ZM117.714 48.46C117.212 48.46 116.827 48.3196 116.557 48.0388C116.291 47.7542 116.158 47.3629 116.158 46.865V43.6468H115.569C115.494 43.6468 115.43 43.6225 115.378 43.5738C115.325 43.5251 115.299 43.4521 115.299 43.3548V42.8044L116.226 42.6527L116.518 41.0802C116.536 41.0053 116.572 40.9473 116.624 40.9061C116.677 40.8649 116.744 40.8443 116.827 40.8443H117.545V42.6584H119.084V43.6468H117.545V46.7695C117.545 46.9492 117.589 47.0896 117.675 47.1907C117.764 47.2918 117.886 47.3423 118.04 47.3423C118.126 47.3423 118.197 47.333 118.253 47.3143C118.313 47.2918 118.364 47.2693 118.405 47.2469C118.45 47.2244 118.489 47.2038 118.523 47.1851C118.556 47.1626 118.59 47.1514 118.624 47.1514C118.665 47.1514 118.699 47.1626 118.725 47.1851C118.751 47.2038 118.779 47.2338 118.809 47.2749L119.225 47.9489C119.023 48.1174 118.79 48.2447 118.528 48.3308C118.266 48.4169 117.995 48.46 117.714 48.46ZM124.057 43.8265C124.015 43.879 123.974 43.9201 123.933 43.9501C123.896 43.9801 123.839 43.995 123.765 43.995C123.693 43.995 123.624 43.9744 123.557 43.9332C123.489 43.8883 123.409 43.8396 123.315 43.7872C123.222 43.7311 123.109 43.6824 122.978 43.6412C122.851 43.5963 122.692 43.5738 122.501 43.5738C122.257 43.5738 122.044 43.6187 121.861 43.7086C121.677 43.7947 121.524 43.9201 121.4 44.0849C121.28 44.2496 121.19 44.4499 121.13 44.6858C121.071 44.918 121.041 45.1819 121.041 45.4777C121.041 45.7848 121.072 46.0581 121.136 46.2977C121.204 46.5373 121.299 46.7395 121.423 46.9043C121.546 47.0653 121.696 47.1888 121.872 47.2749C122.048 47.3573 122.246 47.3985 122.467 47.3985C122.688 47.3985 122.866 47.3723 123.001 47.3199C123.139 47.2637 123.255 47.2038 123.349 47.1401C123.443 47.0728 123.523 47.0128 123.59 46.9604C123.662 46.9043 123.74 46.8762 123.826 46.8762C123.939 46.8762 124.023 46.9192 124.079 47.0054L124.478 47.5108C124.324 47.6905 124.158 47.8422 123.978 47.9657C123.798 48.0856 123.611 48.1829 123.416 48.2578C123.225 48.3289 123.027 48.3795 122.821 48.4094C122.619 48.4394 122.417 48.4544 122.214 48.4544C121.859 48.4544 121.524 48.3888 121.209 48.2578C120.895 48.123 120.619 47.9283 120.384 47.6737C120.148 47.4191 119.96 47.1083 119.822 46.7414C119.687 46.3707 119.62 45.9495 119.62 45.4777C119.62 45.0546 119.68 44.6634 119.799 44.3039C119.923 43.9407 120.103 43.6281 120.339 43.366C120.574 43.1002 120.867 42.8924 121.215 42.7426C121.563 42.5928 121.964 42.5179 122.417 42.5179C122.847 42.5179 123.223 42.5872 123.545 42.7257C123.871 42.8643 124.163 43.0627 124.422 43.3211L124.057 43.8265ZM126.735 43.2256C126.959 43.0159 127.206 42.8456 127.476 42.7145C127.746 42.5835 128.062 42.5179 128.425 42.5179C128.74 42.5179 129.019 42.5722 129.262 42.6808C129.505 42.7857 129.708 42.9354 129.869 43.1301C130.033 43.3211 130.157 43.5513 130.239 43.8209C130.325 44.0868 130.368 44.3807 130.368 44.7027V48.3701H128.981V44.7027C128.981 44.3507 128.901 44.0793 128.74 43.8883C128.579 43.6936 128.333 43.5963 128.004 43.5963C127.764 43.5963 127.54 43.6506 127.33 43.7591C127.12 43.8677 126.922 44.0156 126.735 44.2028V48.3701H125.347V40.0243H126.735V43.2256Z" fill="#438BCF"/>
<path d="M136.418 44.5735C136.119 44.7682 135.9 44.9891 135.761 45.2362C135.627 45.4796 135.559 45.7417 135.559 46.0225C135.559 46.2284 135.595 46.4138 135.666 46.5785C135.737 46.7433 135.833 46.8837 135.952 46.9997C136.076 47.1121 136.218 47.2001 136.379 47.2637C136.544 47.3236 136.718 47.3536 136.901 47.3536C137.231 47.3536 137.532 47.303 137.806 47.2019C138.079 47.0971 138.326 46.9529 138.547 46.7695L136.418 44.5735ZM141.827 48.3701H140.468C140.326 48.3701 140.209 48.3533 140.12 48.3196C140.033 48.2859 139.942 48.2147 139.844 48.1062L139.283 47.5277C138.927 47.8197 138.528 48.0481 138.087 48.2129C137.645 48.3776 137.167 48.46 136.654 48.46C136.344 48.46 136.037 48.4076 135.733 48.3027C135.434 48.1941 135.166 48.0388 134.93 47.8366C134.694 47.6344 134.503 47.391 134.357 47.1065C134.215 46.8181 134.144 46.4943 134.144 46.1348C134.144 45.8802 134.185 45.6406 134.267 45.4159C134.35 45.1876 134.464 44.976 134.61 44.7813C134.756 44.5866 134.93 44.4125 135.132 44.259C135.335 44.1017 135.555 43.9669 135.795 43.8546C135.593 43.5738 135.447 43.3005 135.357 43.0346C135.267 42.7651 135.222 42.4973 135.222 42.2315C135.222 41.9507 135.273 41.6849 135.374 41.434C135.479 41.1794 135.628 40.9585 135.823 40.7713C136.018 40.5841 136.257 40.4362 136.542 40.3276C136.827 40.2153 137.149 40.1591 137.508 40.1591C137.838 40.1591 138.131 40.2096 138.39 40.3107C138.652 40.4118 138.875 40.5466 139.058 40.7151C139.245 40.8836 139.391 41.0764 139.496 41.2936C139.605 41.5108 139.668 41.7354 139.687 41.9675L138.805 42.1529C138.641 42.1866 138.521 42.1154 138.446 41.9395C138.412 41.8421 138.367 41.7504 138.311 41.6643C138.259 41.5744 138.195 41.4977 138.12 41.434C138.045 41.3666 137.957 41.3142 137.856 41.2767C137.755 41.2356 137.639 41.215 137.508 41.215C137.351 41.215 137.21 41.243 137.087 41.2992C136.963 41.3516 136.858 41.4246 136.772 41.5182C136.69 41.6081 136.626 41.7148 136.581 41.8384C136.536 41.9582 136.514 42.0855 136.514 42.2203C136.514 42.3326 136.525 42.4412 136.548 42.546C136.57 42.6509 136.608 42.7557 136.66 42.8605C136.712 42.9654 136.78 43.074 136.862 43.1863C136.948 43.2949 137.053 43.4128 137.177 43.5401L139.333 45.781C139.457 45.5451 139.556 45.2961 139.631 45.034C139.706 44.7719 139.755 44.5061 139.777 44.2365C139.788 44.1504 139.818 44.0811 139.867 44.0287C139.916 43.9763 139.983 43.9501 140.069 43.9501H140.934C140.93 44.4443 140.859 44.9161 140.721 45.3654C140.582 45.8147 140.384 46.2284 140.125 46.6066L141.827 48.3701Z" fill="white"/>
<path d="M151.075 46.455C151.157 46.455 151.23 46.4868 151.294 46.5504L151.889 47.1963C151.56 47.6044 151.153 47.9171 150.67 48.1342C150.191 48.3514 149.614 48.46 148.941 48.46C148.338 48.46 147.795 48.357 147.312 48.1511C146.833 47.9452 146.423 47.6587 146.082 47.2918C145.741 46.9249 145.479 46.4868 145.296 45.9776C145.116 45.4684 145.026 44.9124 145.026 44.3095C145.026 43.6992 145.123 43.1414 145.318 42.6359C145.513 42.1267 145.786 41.6886 146.138 41.3217C146.494 40.9547 146.917 40.6702 147.407 40.468C147.898 40.2621 148.441 40.1591 149.036 40.1591C149.628 40.1591 150.152 40.2565 150.609 40.4511C151.069 40.6458 151.46 40.9005 151.782 41.215L151.277 41.917C151.247 41.9619 151.208 42.0012 151.159 42.0349C151.114 42.0686 151.05 42.0855 150.968 42.0855C150.912 42.0855 150.854 42.0705 150.794 42.0406C150.734 42.0069 150.668 41.9675 150.597 41.9226C150.526 41.8739 150.444 41.8215 150.35 41.7654C150.257 41.7092 150.148 41.6587 150.024 41.6137C149.901 41.565 149.757 41.5257 149.592 41.4958C149.431 41.4621 149.244 41.4452 149.03 41.4452C148.667 41.4452 148.334 41.5108 148.031 41.6418C147.731 41.7691 147.473 41.9563 147.256 42.2034C147.038 42.4468 146.87 42.7463 146.75 43.102C146.63 43.454 146.57 43.8565 146.57 44.3095C146.57 44.7663 146.634 45.1726 146.761 45.5283C146.892 45.884 147.068 46.1835 147.289 46.4269C147.51 46.6703 147.77 46.8575 148.07 46.9885C148.37 47.1158 148.692 47.1795 149.036 47.1795C149.242 47.1795 149.427 47.1682 149.592 47.1458C149.76 47.1233 149.914 47.0877 150.053 47.0391C150.195 46.9904 150.328 46.9286 150.451 46.8537C150.579 46.7751 150.704 46.6796 150.828 46.5673C150.865 46.5336 150.904 46.5074 150.946 46.4887C150.987 46.4662 151.03 46.455 151.075 46.455ZM155.134 42.5179C155.561 42.5179 155.948 42.5872 156.297 42.7257C156.649 42.8643 156.948 43.0609 157.195 43.3155C157.446 43.5701 157.639 43.8808 157.774 44.2478C157.909 44.6147 157.976 45.0247 157.976 45.4777C157.976 45.9345 157.909 46.3464 157.774 46.7133C157.639 47.0802 157.446 47.3929 157.195 47.6512C156.948 47.9096 156.649 48.108 156.297 48.2466C155.948 48.3851 155.561 48.4544 155.134 48.4544C154.703 48.4544 154.312 48.3851 153.96 48.2466C153.608 48.108 153.307 47.9096 153.056 47.6512C152.809 47.3929 152.616 47.0802 152.478 46.7133C152.343 46.3464 152.275 45.9345 152.275 45.4777C152.275 45.0247 152.343 44.6147 152.478 44.2478C152.616 43.8808 152.809 43.5701 153.056 43.3155C153.307 43.0609 153.608 42.8643 153.96 42.7257C154.312 42.5872 154.703 42.5179 155.134 42.5179ZM155.134 47.3873C155.613 47.3873 155.967 47.2263 156.196 46.9043C156.428 46.5823 156.544 46.1105 156.544 45.489C156.544 44.8674 156.428 44.3938 156.196 44.068C155.967 43.7423 155.613 43.5794 155.134 43.5794C154.647 43.5794 154.286 43.7442 154.05 44.0737C153.818 44.3994 153.702 44.8712 153.702 45.489C153.702 46.1068 153.818 46.5785 154.05 46.9043C154.286 47.2263 154.647 47.3873 155.134 47.3873ZM159.034 48.3701V42.6078H159.882C160.062 42.6078 160.18 42.692 160.236 42.8605L160.326 43.2874C160.427 43.175 160.532 43.0721 160.64 42.9785C160.753 42.8849 160.871 42.8044 160.994 42.737C161.122 42.6696 161.256 42.6172 161.399 42.5797C161.545 42.5385 161.704 42.5179 161.876 42.5179C162.239 42.5179 162.537 42.6172 162.769 42.8156C163.005 43.0103 163.181 43.2705 163.297 43.5963C163.387 43.4053 163.499 43.2424 163.634 43.1077C163.769 42.9691 163.917 42.8568 164.078 42.7707C164.239 42.6846 164.409 42.6209 164.589 42.5797C164.772 42.5385 164.956 42.5179 165.139 42.5179C165.457 42.5179 165.74 42.5666 165.987 42.664C166.234 42.7613 166.442 42.9036 166.611 43.0908C166.779 43.278 166.906 43.5064 166.992 43.776C167.082 44.0456 167.127 44.3545 167.127 44.7027V48.3701H165.74V44.7027C165.74 44.3357 165.66 44.0606 165.499 43.8771C165.338 43.6899 165.102 43.5963 164.791 43.5963C164.649 43.5963 164.516 43.6206 164.392 43.6693C164.272 43.718 164.166 43.7891 164.072 43.8827C163.982 43.9726 163.911 44.0868 163.859 44.2253C163.806 44.3638 163.78 44.523 163.78 44.7027V48.3701H162.387V44.7027C162.387 44.317 162.309 44.0362 162.151 43.8602C161.998 43.6843 161.771 43.5963 161.472 43.5963C161.27 43.5963 161.08 43.6468 160.904 43.7479C160.732 43.8453 160.571 43.9801 160.421 44.1523V48.3701H159.034ZM169.833 46.8762C169.99 47.0671 170.161 47.2019 170.344 47.2806C170.531 47.3592 170.734 47.3985 170.951 47.3985C171.16 47.3985 171.35 47.3592 171.518 47.2806C171.686 47.2019 171.829 47.0821 171.945 46.9211C172.065 46.7601 172.156 46.5579 172.22 46.3146C172.284 46.0674 172.316 45.7773 172.316 45.444C172.316 45.1071 172.287 44.8225 172.231 44.5904C172.179 44.3545 172.102 44.1635 172.001 44.0175C171.9 43.8715 171.776 43.7648 171.63 43.6974C171.488 43.63 171.325 43.5963 171.142 43.5963C170.853 43.5963 170.608 43.6581 170.406 43.7816C170.204 43.9014 170.013 44.0718 169.833 44.2927V46.8762ZM169.76 43.3941C169.996 43.1282 170.264 42.913 170.563 42.7482C170.863 42.5835 171.215 42.5011 171.619 42.5011C171.934 42.5011 172.22 42.5666 172.478 42.6977C172.74 42.8287 172.965 43.0197 173.152 43.2705C173.343 43.5176 173.489 43.8247 173.59 44.1916C173.695 44.5548 173.748 44.9723 173.748 45.444C173.748 45.8746 173.69 46.2734 173.574 46.6403C173.457 47.0072 173.291 47.3255 173.074 47.5951C172.86 47.8647 172.6 48.0762 172.293 48.2297C171.99 48.3795 171.649 48.4544 171.271 48.4544C170.949 48.4544 170.674 48.4057 170.445 48.3083C170.217 48.2072 170.013 48.0687 169.833 47.8927V50.2516H168.446V42.6078H169.294C169.474 42.6078 169.592 42.692 169.648 42.8605L169.76 43.3941ZM177.38 42.5179C177.807 42.5179 178.194 42.5872 178.542 42.7257C178.894 42.8643 179.194 43.0609 179.441 43.3155C179.692 43.5701 179.885 43.8808 180.019 44.2478C180.154 44.6147 180.222 45.0247 180.222 45.4777C180.222 45.9345 180.154 46.3464 180.019 46.7133C179.885 47.0802 179.692 47.3929 179.441 47.6512C179.194 47.9096 178.894 48.108 178.542 48.2466C178.194 48.3851 177.807 48.4544 177.38 48.4544C176.949 48.4544 176.558 48.3851 176.206 48.2466C175.854 48.108 175.553 47.9096 175.302 47.6512C175.055 47.3929 174.862 47.0802 174.723 46.7133C174.589 46.3464 174.521 45.9345 174.521 45.4777C174.521 45.0247 174.589 44.6147 174.723 44.2478C174.862 43.8808 175.055 43.5701 175.302 43.3155C175.553 43.0609 175.854 42.8643 176.206 42.7257C176.558 42.5872 176.949 42.5179 177.38 42.5179ZM177.38 47.3873C177.859 47.3873 178.213 47.2263 178.441 46.9043C178.673 46.5823 178.79 46.1105 178.79 45.489C178.79 44.8674 178.673 44.3938 178.441 44.068C178.213 43.7423 177.859 43.5794 177.38 43.5794C176.893 43.5794 176.532 43.7442 176.296 44.0737C176.064 44.3994 175.948 44.8712 175.948 45.489C175.948 46.1068 176.064 46.5785 176.296 46.9043C176.532 47.2263 176.893 47.3873 177.38 47.3873ZM186.245 42.6078V48.3701H185.397C185.213 48.3701 185.097 48.2859 185.049 48.1174L184.953 47.6568C184.717 47.8965 184.457 48.0912 184.172 48.2409C183.888 48.387 183.553 48.46 183.167 48.46C182.853 48.46 182.574 48.4076 182.33 48.3027C182.091 48.1941 181.888 48.0425 181.724 47.8478C181.559 47.6531 181.434 47.4228 181.347 47.157C181.265 46.8874 181.224 46.5916 181.224 46.2696V42.6078H182.611V46.2696C182.611 46.6216 182.692 46.8949 182.853 47.0896C183.017 47.2806 183.263 47.376 183.588 47.376C183.828 47.376 184.053 47.3236 184.262 47.2188C184.472 47.1102 184.67 46.9623 184.858 46.7751V42.6078H186.245ZM188.918 43.3155C189.034 43.1994 189.155 43.0927 189.283 42.9953C189.414 42.8942 189.55 42.81 189.693 42.7426C189.839 42.6715 189.994 42.6172 190.159 42.5797C190.324 42.5385 190.503 42.5179 190.698 42.5179C191.012 42.5179 191.291 42.5722 191.535 42.6808C191.778 42.7857 191.98 42.9354 192.141 43.1301C192.306 43.3211 192.43 43.5513 192.512 43.8209C192.598 44.0868 192.641 44.3807 192.641 44.7027V48.3701H191.254V44.7027C191.254 44.3507 191.173 44.0793 191.012 43.8883C190.851 43.6936 190.606 43.5963 190.277 43.5963C190.037 43.5963 189.812 43.6506 189.603 43.7591C189.393 43.8677 189.195 44.0156 189.007 44.2028V48.3701H187.62V42.6078H188.468C188.648 42.6078 188.766 42.692 188.822 42.8605L188.918 43.3155ZM197.577 44.0793C197.42 43.8883 197.248 43.7535 197.061 43.6749C196.877 43.5963 196.679 43.557 196.465 43.557C196.256 43.557 196.067 43.5963 195.898 43.6749C195.73 43.7535 195.585 43.8733 195.466 44.0343C195.346 44.1916 195.254 44.3938 195.19 44.6409C195.127 44.8843 195.095 45.1726 195.095 45.5058C195.095 45.8428 195.121 46.1292 195.174 46.3651C195.23 46.5972 195.308 46.7882 195.41 46.938C195.511 47.084 195.634 47.1907 195.78 47.2581C195.926 47.3217 196.089 47.3536 196.269 47.3536C196.557 47.3536 196.802 47.2937 197.005 47.1738C197.207 47.054 197.398 46.8837 197.577 46.6628V44.0793ZM198.965 40.0243V48.3701H198.117C197.933 48.3701 197.817 48.2859 197.768 48.1174L197.65 47.5614C197.418 47.8272 197.151 48.0425 196.847 48.2072C196.548 48.372 196.198 48.4544 195.797 48.4544C195.483 48.4544 195.194 48.3888 194.932 48.2578C194.67 48.1267 194.444 47.9377 194.253 47.6905C194.065 47.4397 193.919 47.1308 193.814 46.7639C193.713 46.3969 193.663 45.9776 193.663 45.5058C193.663 45.079 193.721 44.6821 193.837 44.3152C193.953 43.9482 194.12 43.63 194.337 43.3604C194.554 43.0908 194.814 42.8811 195.117 42.7314C195.421 42.5779 195.761 42.5011 196.14 42.5011C196.462 42.5011 196.737 42.5516 196.965 42.6527C197.194 42.7538 197.398 42.8905 197.577 43.0627V40.0243H198.965Z" fill="#92C24A"/>
</svg>
